<?xml version="1.0" encoding="UTF-8" standalone="no"?>
<!-- Creator: CorelDRAW -->

<svg
   xmlns:dc="http://purl.org/dc/elements/1.1/"
   xmlns:cc="http://creativecommons.org/ns#"
   xmlns:rdf="http://www.w3.org/1999/02/22-rdf-syntax-ns#"
   xmlns:svg="http://www.w3.org/2000/svg"
   xmlns="http://www.w3.org/2000/svg"
   xmlns:sodipodi="http://sodipodi.sourceforge.net/DTD/sodipodi-0.dtd"
   xmlns:inkscape="http://www.inkscape.org/namespaces/inkscape"
   xml:space="preserve"
   width="500px"
   height="315px"
   style="shape-rendering:geometricPrecision; text-rendering:geometricPrecision; image-rendering:optimizeQuality; fill-rule:evenodd; clip-rule:evenodd"
   viewBox="0 0 500 315.001"
   id="svg3155"
   version="1.1"
   inkscape:version="0.48.1 "
   sodipodi:docname="banco_nacion_arg_logo.svg"><metadata
   id="metadata3323"><rdf:RDF><cc:Work
       rdf:about=""><dc:format>image/svg+xml</dc:format><dc:type
         rdf:resource="http://purl.org/dc/dcmitype/StillImage" /></cc:Work></rdf:RDF></metadata><sodipodi:namedview
   pagecolor="#ffffff"
   bordercolor="#666666"
   borderopacity="1"
   objecttolerance="10"
   gridtolerance="10"
   guidetolerance="10"
   inkscape:pageopacity="0"
   inkscape:pageshadow="2"
   inkscape:window-width="1366"
   inkscape:window-height="706"
   id="namedview3321"
   showgrid="false"
   inkscape:zoom="0.73671968"
   inkscape:cx="284.80056"
   inkscape:cy="150.53106"
   inkscape:window-x="-8"
   inkscape:window-y="-8"
   inkscape:window-maximized="1"
   inkscape:current-layer="svg3155" />
 <defs
   id="defs3157">
  <style
   type="text/css"
   id="style3159">
   
    .fil0 {fill:#007CC3}
    .fil1 {fill:#007CC3;fill-rule:nonzero}
    .fil3 {fill:#DD137B;fill-rule:nonzero}
    .fil2 {fill:#E77817;fill-rule:nonzero}
   
  </style>
 
  
  
  
  
  
  
  
  
  
  
  
  
  
  
  
  
  
  
  
  
  
  
  
  
  
  
  
  
  
  
  
  
  
  
  
  
  
  
  
  
  
  
  
  
  
  
  
  
  
  
  
  
  
  
  
  
  
  
  
  
  
  
  
  
  
  
  
  
  
  
  
  
  
  
  
 </defs>
 <g
   id="_170087368"
   transform="translate(3.0007454,0)">
   <g
   id="g3164">
    <path
   style="fill:#007cc3"
   inkscape:connector-curvature="0"
   d="m 187.551,62.8136 58.7092,-29.6068 61.3514,30.7182 -120.061,-1.11142 z m 34.1363,-8.10121 25.3253,-12.7713 26.4627,13.2508 -51.788,-0.479529 z"
   class="fil0"
   id="_169939760" />
    <rect
   style="fill:#007cc3"
   height="68.923599"
   width="13.8959"
   y="68.371902"
   x="198.80499"
   class="fil0"
   id="_169939688" />
    <rect
   style="fill:#007cc3"
   y="0"
   x="0"
   height="174.70599"
   width="36.7029"
   transform="matrix(0,-0.283415,0.593727,0,195.717,153.339)"
   class="fil0"
   id="_169939616" />
    <rect
   style="fill:#007cc3"
   height="68.923599"
   width="13.8959"
   y="68.371902"
   x="226.66901"
   class="fil0"
   id="_169939544" />
    <rect
   style="fill:#007cc3"
   height="68.923599"
   width="13.8959"
   y="68.371902"
   x="254.612"
   class="fil0"
   id="_169939472" />
    <rect
   style="fill:#007cc3"
   height="68.923599"
   width="13.8959"
   y="68.371902"
   x="282.17999"
   class="fil0"
   id="_169939400" />
    <rect
   style="fill:#007cc3"
   y="0"
   x="0"
   height="174.70599"
   width="36.7029"
   transform="matrix(0,-0.283415,0.668551,0,189.43,169.089)"
   class="fil0"
   id="_170712928" />
   </g>
   <path
   style="fill:#007cc3"
   inkscape:connector-curvature="0"
   d="m 247.581,5.56301 c 57.2423,0 103.663,46.4198 103.663,103.662 0,57.2435 -46.421,103.664 -103.663,103.664 -57.2435,0 -103.663,-46.421 -103.663,-103.664 0,-57.2423 46.4198,-103.662 103.663,-103.662 z m 0,14.7048 c 49.1234,0 88.9574,39.834 88.9574,88.9574 0,49.1246 -39.834,88.9585 -88.9574,88.9585 -49.1234,0 -88.9574,-39.834 -88.9574,-88.9585 0,-49.1234 39.834,-88.9574 88.9574,-88.9574 z"
   class="fil0"
   id="_170712832" />
  </g><g
   id="g3410"><path
     class="fil1"
     d="m 92.110199,232.0166 c 0,-1.92659 -1.529983,-2.88899 -4.604525,-2.88899 l 0,-0.82593 12.869396,0 c 8.80884,0 13.21324,2.63609 13.21324,7.91012 0,3.54027 -2.11943,5.77613 -6.36921,6.73853 l 0,0.0582 c 2.27225,0.41115 4.18064,1.27167 5.6979,2.59062 1.51908,1.31715 2.28681,3.04726 2.28681,5.19216 0,2.75072 -1.12066,4.85923 -3.35835,6.32556 -2.23587,1.46815 -5.28674,2.2013 -9.14902,2.2013 l -15.190785,0 0,-0.88233 c 3.074542,0 4.604534,-0.96239 4.604534,-2.88898 l 0,-23.5302 z m 4.933828,23.10631 c 0,0.88235 0.247413,1.52454 0.754986,1.90294 0.505762,0.38933 1.577296,0.58399 3.214617,0.58399 2.75434,0 4.91017,-0.51486 6.45107,-1.54636 1.54455,-1.03153 2.30863,-2.83076 2.30863,-5.41047 0,-4.44807 -3.43838,-6.67121 -10.31517,-6.67121 l -2.414153,0 0,11.14111 z m 3.969603,-12.99857 c 2.45964,0 4.35712,-0.49121 5.68699,-1.48998 1.33169,-0.9842 2.0012,-2.41779 2.0012,-4.28617 0,-1.73011 -0.50578,-3.11821 -1.53001,-4.14972 -1.02424,-1.04242 -2.42689,-1.69554 -4.19156,-1.98299 -1.88475,-0.08 -2.990855,-0.12554 -3.311035,-0.12554 -0.975116,0 -1.659167,0.0927 -2.048491,0.28745 -0.389324,0.19465 -0.576697,0.58398 -0.576697,1.15705 l 0,10.58988 3.969603,0 z"
     id="path3177"
     inkscape:connector-curvature="0"
     style="fill:#007cc3;fill-rule:nonzero" /><path
     class="fil1"
     d="m 148.19859,253.80565 c 0.73135,1.61548 1.36626,2.78527 1.93204,3.51843 0.55306,0.73317 1.43539,1.10065 2.66158,1.10065 l 0,0.89325 -12.28361,0 0,-0.89325 c 1.24982,-0.0692 2.13398,-0.2074 2.627,-0.43662 0.50576,-0.21831 0.75499,-0.5949 0.75499,-1.13522 0,-0.50392 -0.40206,-1.73011 -1.19161,-3.66761 l -1.70647,-3.9769 -12.7184,0 c -0.0219,0.0692 -0.44572,1.12431 -1.28259,3.16368 -0.83683,2.03939 -1.24799,3.3929 -1.24799,4.05694 0,1.32989 1.08245,1.99572 3.23828,1.99572 l 0,0.89326 -9.53835,0 0,-0.89326 c 1.32985,-0.12738 2.37959,-0.79138 3.14367,-1.96116 0.76589,-1.18068 1.81197,-3.25464 3.1564,-6.23458 l 9.7494,-22.61511 0.97693,0 11.72873,26.19183 z m -19.07489,-6.53476 11.23208,0 -5.63787,-12.91671 -5.59421,12.91671 z"
     id="path3179"
     inkscape:connector-curvature="0"
     style="fill:#007cc3;fill-rule:nonzero" /><path
     class="fil1"
     d="m 183.03242,259.93603 -0.77682,0 -21.40905,-25.78982 0,21.38903 c 0,1.92478 1.55546,2.88899 4.66273,2.88899 l 0,0.89325 -11.4322,0 0,-0.89325 c 3.14368,0 4.72097,-0.96421 4.72097,-2.88899 l 0,-23.7959 -0.41115,-0.48028 c -0.84778,-0.90598 -1.49725,-1.47905 -1.94296,-1.7192 -0.44753,-0.24197 -1.23526,-0.3784 -2.36686,-0.41297 l 0,-0.82595 8.25397,0 18.51099,22.48958 0,-18.77469 c 0,-1.92659 -1.55365,-2.88898 -4.66275,-2.88898 l 0,-0.82594 11.51588,0 0,0.82594 c -3.10729,0 -4.66273,0.96239 -4.66273,2.88898 l 0,27.92005 z"
     id="path3181"
     inkscape:connector-curvature="0"
     style="fill:#007cc3;fill-rule:nonzero" /><path
     class="fil1"
     d="m 218.35914,238.21629 -1.07336,0 c -0.46938,-1.75376 -1.17707,-3.27829 -2.13036,-4.59543 -0.95328,-1.31896 -2.14308,-2.33955 -3.55663,-3.07272 -1.41175,-0.72225 -3.02542,-1.08791 -4.82648,-1.08791 -3.78041,0 -6.60572,1.3517 -8.47955,4.04602 -1.87202,2.6925 -2.81438,6.28006 -2.81438,10.73906 0,2.29225 0.41296,4.48082 1.23708,6.56751 0.83686,2.07576 2.11944,3.77131 3.85136,5.09027 1.7301,1.30621 3.84954,1.95933 6.34738,1.95933 2.28317,0 4.29708,-0.3784 6.05084,-1.12432 1.75559,-0.75497 3.4857,-1.93569 5.18124,-3.56392 l 0.84777,0.90601 c -1.47178,1.76467 -3.36745,3.1746 -5.67607,4.25159 -2.30681,1.06607 -4.60272,1.60459 -6.90044,1.60459 -3.15459,0 -5.99262,-0.62948 -8.5123,-1.90294 -2.51967,-1.27167 -4.49903,-3.12912 -5.93441,-5.55783 -1.43722,-2.44144 -2.15583,-5.31949 -2.15583,-8.64328 0,-2.31408 0.40025,-4.46991 1.21346,-6.44198 0.80048,-1.98117 1.94296,-3.7131 3.43657,-5.17942 1.49543,-1.47906 3.25101,-2.61427 5.26492,-3.40383 2.01391,-0.79138 4.21521,-1.19343 6.63118,-1.19343 1.29349,0 2.36503,0.10366 3.20007,0.29836 0.83867,0.19466 1.83746,0.48209 3.0036,0.84777 1.17889,0.37841 1.96661,0.56215 2.39049,0.56215 0.83687,0 1.49544,-0.56215 1.99209,-1.70828 l 0.97695,0 0.43479,10.60261 z"
     id="path3183"
     inkscape:connector-curvature="0"
     style="fill:#007cc3;fill-rule:nonzero" /><path
     class="fil1"
     d="m 253.615,243.76291 c 0,2.28135 -0.36566,4.38986 -1.08246,6.34009 -0.72043,1.93569 -1.76832,3.65488 -3.1564,5.14486 -1.38991,1.48997 -3.06181,2.64883 -5.00659,3.46203 -1.94115,0.81319 -4.08422,1.22617 -6.42924,1.22617 -2.13036,0 -4.15701,-0.36566 -6.06359,-1.11156 -1.91931,-0.74407 -3.61304,-1.8338 -5.11029,-3.25465 -1.48268,-1.42084 -2.64883,-3.14184 -3.48569,-5.15759 -0.83686,-2.03028 -1.24801,-4.24068 -1.24801,-6.64937 0,-3.0145 0.65857,-5.76522 1.97752,-8.22848 1.32079,-2.47602 3.18006,-4.41351 5.59421,-5.8107 2.41416,-1.40992 5.19216,-2.11033 8.33583,-2.11033 2.88534,0 5.52326,0.67676 7.91376,2.01756 2.39049,1.34078 4.28798,3.24372 5.67607,5.70881 1.3881,2.46329 2.08487,5.27222 2.08487,8.42316 z m -25.98989,0.0123 c 0,4.56086 0.94237,8.12661 2.82712,10.68265 1.88291,2.55605 4.38076,3.83863 7.48804,3.83863 3.65125,-0.28564 6.27644,-1.8902 7.89194,-4.80284 1.61185,-2.91081 2.41233,-6.15453 2.41233,-9.71845 0,-2.57971 -0.35294,-4.96294 -1.07154,-7.17515 -0.70586,-2.20129 -1.83745,-3.97689 -3.37835,-5.31949 -1.55547,-1.34079 -3.49843,-2.01574 -5.85436,-2.01574 -6.87497,0.52576 -10.31517,5.36316 -10.31517,14.51038 z"
     id="path3185"
     inkscape:connector-curvature="0"
     style="fill:#007cc3;fill-rule:nonzero" /><path
     class="fil1"
     d="m 271.77357,259.31837 0,-0.89326 c 2.77982,0 4.16973,-0.96421 4.16973,-2.88898 l 0,-23.51925 c 0,-1.92659 -1.38989,-2.88899 -4.16973,-2.88899 l 0,-0.82595 12.4346,0 c 4.13516,0 7.69,0.57306 10.64628,1.70828 2.9672,1.14614 5.22671,2.87626 6.79309,5.19216 1.56637,2.31591 2.34503,5.19216 2.34503,8.63056 0,4.87197 -1.64824,8.6651 -4.94656,11.39398 -3.30922,2.72707 -8.12479,4.09152 -14.4849,4.09152 l -12.78754,0 z m 9.11446,-4.20612 c 0,1.5118 0.77864,2.2686 2.33229,2.2686 3.36744,0 6.21822,-0.5385 8.53776,-1.60458 2.31955,-1.06609 4.07332,-2.61245 5.25037,-4.64091 1.16796,-2.03028 1.75559,-4.43717 1.75559,-7.23336 0,-2.99086 -0.62401,-5.536 -1.87203,-7.62267 -1.24983,-2.08487 -3.0145,-3.65488 -5.28857,-4.69915 -2.27225,-1.04242 -4.91018,-1.57001 -7.8883,-1.57001 -1.23709,0 -2.02665,0.12553 -2.34319,0.36749 -0.31837,0.25107 -0.48392,0.90417 -0.48392,1.97026 l 0,22.76436 z"
     id="path3187"
     inkscape:connector-curvature="0"
     style="fill:#007cc3;fill-rule:nonzero" /><path
     class="fil1"
     d="m 306.12374,259.31837 0,-0.89326 c 2.82531,0 4.23887,-0.96421 4.23887,-2.88898 l 0,-23.51925 c 0,-1.92659 -1.41356,-2.88899 -4.23887,-2.88899 l 0,-0.82595 25.6461,0 0,6.66029 -1.06971,0 c -0.72043,-3.20916 -2.55789,-4.81375 -5.50142,-4.81375 l -7.78277,0 c -1.41175,0 -2.11944,0.61855 -2.11944,1.86838 l 0,10.04045 6.78399,0 c 1.85929,0 3.33107,-0.32199 4.40261,-0.96419 1.07154,-0.62946 1.61368,-1.79923 1.61368,-3.50569 l 0.97693,0 0,11.00285 -0.97693,0 c 0,-3.05999 -2.00301,-4.59727 -6.01629,-4.59727 l -6.78399,0 0,11.54318 c 0,1.22616 0.40023,1.84472 1.21346,1.84472 l 6.42924,0 c 1.67189,0 3.04907,-0.10181 4.12243,-0.29836 1.06973,-0.19465 2.11944,-0.72043 3.1546,-1.60459 1.03697,-0.86961 1.94295,-2.22313 2.74343,-4.06784 l 1.3426,0 -2.12124,7.9083 -26.05722,0 z"
     id="path3189"
     inkscape:connector-curvature="0"
     style="fill:#007cc3;fill-rule:nonzero" /><path
     class="fil1"
     d="m 351.12661,259.31837 0,-0.89326 c 2.82531,0 4.23887,-0.96421 4.23887,-2.88898 l 0,-23.51925 c 0,-1.92659 -1.41356,-2.88899 -4.23887,-2.88899 l 0,-0.82595 13.35152,0 0,0.82595 c -2.78893,0 -4.17884,0.96238 -4.17884,2.88899 l 0,23.51925 c 0,1.22617 1.60276,1.84472 4.81739,1.84472 2.65976,0 4.73189,-0.11458 6.21639,-0.33109 1.47179,-0.22923 2.79075,-0.79138 3.93142,-1.68646 1.15522,-0.89327 2.11943,-2.30317 2.92173,-4.22794 l 1.18978,0 -2.33228,8.18301 -25.91705,0 z"
     id="path3191"
     inkscape:connector-curvature="0"
     style="fill:#007cc3;fill-rule:nonzero" /><path
     class="fil1"
     d="m 409.47462,253.80565 c 0.73134,1.61548 1.36626,2.78527 1.93204,3.51843 0.55306,0.73317 1.43539,1.10065 2.66157,1.10065 l 0,0.89325 -12.28361,0 0,-0.89325 c 1.24983,-0.0692 2.13399,-0.2074 2.627,-0.43662 0.50577,-0.21831 0.755,-0.5949 0.755,-1.13522 0,-0.50392 -0.40205,-1.73011 -1.1916,-3.66761 l -1.70647,-3.9769 -12.71842,0 c -0.0219,0.0692 -0.44571,1.12431 -1.28257,3.16368 -0.83685,2.03939 -1.248,3.3929 -1.248,4.05694 0,1.32989 1.08244,1.99572 3.23828,1.99572 l 0,0.89326 -9.53835,0 0,-0.89326 c 1.32987,-0.12738 2.37958,-0.79138 3.14365,-1.96116 0.7659,-1.18068 1.81199,-3.25464 3.15642,-6.23458 l 9.74938,-22.61511 0.97694,0 11.72874,26.19183 z m -19.07489,-6.53476 11.23208,0 -5.63787,-12.91671 -5.59421,12.91671 z"
     id="path3193"
     inkscape:connector-curvature="0"
     style="fill:#007cc3;fill-rule:nonzero" /><path
     class="fil1"
     d="m 38.261409,302.03082 -0.776818,0 -21.409057,-25.78982 0,21.38903 c 0,1.92477 1.555465,2.88898 4.662744,2.88898 l 0,0.89325 -11.4321973,0 0,-0.89325 c 3.1436673,0 4.7209633,-0.96421 4.7209633,-2.88898 l 0,-23.7959 -0.411145,-0.48028 c -0.847782,-0.90599 -1.497246,-1.47905 -1.942968,-1.7192 -0.447534,-0.24197 -1.235276,-0.3784 -2.3668503,-0.41298 l 0,-0.82595 8.2539633,0 18.510983,22.48958 0,-18.77469 c 0,-1.92659 -1.553635,-2.88897 -4.662744,-2.88897 l 0,-0.82595 11.515879,0 0,0.82595 c -3.107288,0 -4.662744,0.96238 -4.662744,2.88897 l 0,27.92005 z"
     id="path3195"
     inkscape:connector-curvature="0"
     style="fill:#007cc3;fill-rule:nonzero" /><path
     class="fil1"
     d="m 72.950446,295.90043 c 0.731354,1.6155 1.366261,2.78527 1.932043,3.51844 0.553056,0.73316 1.435386,1.10065 2.661567,1.10065 l 0,0.89325 -12.283602,0 0,-0.89325 c 1.249823,-0.0692 2.133983,-0.2074 2.626999,-0.43662 0.505762,-0.21831 0.754996,-0.5949 0.754996,-1.13522 0,-0.50392 -0.40206,-1.73011 -1.191614,-3.66762 l -1.70647,-3.97689 -12.718399,0 c -0.02187,0.0692 -0.445721,1.1243 -1.282588,3.16368 -0.836838,2.03938 -1.247993,3.3929 -1.247993,4.05694 0,1.32987 1.08244,1.99571 3.238274,1.99571 l 0,0.89327 -9.538353,0 0,-0.89327 c 1.329863,-0.12738 2.379595,-0.79137 3.143666,-1.96114 0.765902,-1.18068 1.811983,-3.25466 3.156413,-6.23459 l 9.749389,-22.61511 0.976937,0 11.728735,26.19184 z m -19.074896,-6.53476 11.232088,0 -5.63787,-12.91669 -5.594218,12.91669 z"
     id="path3197"
     inkscape:connector-curvature="0"
     style="fill:#007cc3;fill-rule:nonzero" /><path
     class="fil1"
     d="m 108.34956,280.31108 -1.07336,0 c -0.46937,-1.75377 -1.17707,-3.27829 -2.13035,-4.59543 -0.9533,-1.31896 -2.14308,-2.33956 -3.55664,-3.07272 -1.41175,-0.72224 -3.025422,-1.08792 -4.82647,-1.08792 -3.780413,0 -6.605731,1.35171 -8.479565,4.04603 -1.872013,2.6925 -2.814382,6.28007 -2.814382,10.73905 0,2.29226 0.412975,4.48083 1.237086,6.56751 0.836867,2.07577 2.119436,3.77131 3.85136,5.09026 1.730112,1.30622 3.849548,1.95935 6.347392,1.95935 2.283158,0 4.297069,-0.37841 6.050839,-1.12431 1.75558,-0.75498 3.48569,-1.9357 5.18124,-3.56393 l 0.84776,0.906 c -1.47177,1.76467 -3.36745,3.1746 -5.67608,4.2516 -2.3068,1.06606 -4.602711,1.60458 -6.900435,1.60458 -3.154592,0 -5.992617,-0.62947 -8.512292,-1.90295 -2.519666,-1.27167 -4.499022,-3.12911 -5.934418,-5.55782 -1.437206,-2.44142 -2.155814,-5.31949 -2.155814,-8.64327 0,-2.3141 0.400249,-4.46991 1.213445,-6.44198 0.800478,-1.98116 1.942958,-3.7131 3.436572,-5.17942 1.495435,-1.47905 3.25101,-2.61427 5.264924,-3.40382 2.013904,-0.7914 4.215201,-1.19345 6.631175,-1.19345 1.293494,0 2.365038,0.10367 3.200074,0.29835 0.838679,0.19467 1.837459,0.48211 3.003599,0.84779 1.17887,0.3784 1.96662,0.56215 2.3905,0.56215 0.83685,0 1.49542,-0.56215 1.99207,-1.70829 l 0.97696,0 0.4348,10.60263 z"
     id="path3199"
     inkscape:connector-curvature="0"
     style="fill:#007cc3;fill-rule:nonzero" /><path
     class="fil1"
     d="m 120.99694,297.63019 c 0,1.92477 1.55364,2.88898 4.67548,2.88898 l 0,0.89324 -14.28478,0 0,-0.89324 c 3.12185,0 4.67548,-0.96421 4.67548,-2.88898 l 0,-23.51927 c 0,-1.92658 -1.55363,-2.88898 -4.67548,-2.88898 l 0,-0.82594 14.28478,0 0,0.82594 c -3.12184,0 -4.67548,0.9624 -4.67548,2.88898 l 0,23.51927 z"
     id="path3201"
     inkscape:connector-curvature="0"
     style="fill:#007cc3;fill-rule:nonzero" /><path
     class="fil1"
     d="m 159.64455,285.85769 c 0,2.28135 -0.36568,4.38987 -1.08246,6.34009 -0.72043,1.9357 -1.76833,3.65488 -3.15642,5.14486 -1.3899,1.48998 -3.0618,2.64884 -5.00658,3.46204 -1.94114,0.8132 -4.08423,1.22616 -6.42925,1.22616 -2.13035,0 -4.157,-0.36566 -6.06358,-1.11155 -1.91931,-0.74407 -3.61305,-1.83379 -5.11028,-3.25465 -1.4827,-1.42085 -2.64884,-3.14186 -3.4857,-5.15759 -0.83686,-2.03028 -1.24801,-4.24069 -1.24801,-6.64937 0,-3.01451 0.65857,-5.76523 1.97752,-8.22849 1.32079,-2.47601 3.18006,-4.41351 5.59421,-5.81069 2.41415,-1.40993 5.19216,-2.11033 8.33583,-2.11033 2.88532,0 5.52326,0.67675 7.91375,2.01756 2.3905,1.34078 4.288,3.24373 5.67608,5.70882 1.3881,2.46327 2.08487,5.2722 2.08487,8.42314 z m -25.98991,0.0123 c 0,4.56088 0.94236,8.12661 2.82712,10.68266 1.88292,2.55605 4.38077,3.83862 7.48806,3.83862 3.65124,-0.28563 6.27642,-1.8902 7.89192,-4.80283 1.61186,-2.91081 2.41234,-6.15454 2.41234,-9.71845 0,-2.57971 -0.35295,-4.96294 -1.07154,-7.17515 -0.70588,-2.2013 -1.83745,-3.97689 -3.37835,-5.31949 -1.55547,-1.3408 -3.49843,-2.01575 -5.85436,-2.01575 -6.87496,0.52578 -10.31518,5.36318 -10.31518,14.51039 z"
     id="path3203"
     inkscape:connector-curvature="0"
     style="fill:#007cc3;fill-rule:nonzero" /><path
     class="fil1"
     d="m 190.80322,302.03082 -0.77682,0 -21.40906,-25.78982 0,21.38903 c 0,1.92477 1.55547,2.88898 4.66274,2.88898 l 0,0.89325 -11.43219,0 0,-0.89325 c 3.14366,0 4.72096,-0.96421 4.72096,-2.88898 l 0,-23.7959 -0.41115,-0.48028 c -0.84778,-0.90599 -1.49724,-1.47905 -1.94297,-1.7192 -0.44752,-0.24197 -1.23526,-0.3784 -2.36684,-0.41298 l 0,-0.82595 8.25396,0 18.51099,22.48958 0,-18.77469 c 0,-1.92659 -1.55364,-2.88897 -4.66274,-2.88897 l 0,-0.82595 11.51588,0 0,0.82595 c -3.10729,0 -4.66275,0.96238 -4.66275,2.88897 l 0,27.92005 z"
     id="path3205"
     inkscape:connector-curvature="0"
     style="fill:#007cc3;fill-rule:nonzero" /><path
     class="fil1"
     d="m 241.03694,295.90043 c 0.73134,1.6155 1.36625,2.78527 1.93203,3.51844 0.55306,0.73316 1.4354,1.10065 2.66158,1.10065 l 0,0.89325 -12.28361,0 0,-0.89325 c 1.24982,-0.0692 2.13398,-0.2074 2.62701,-0.43662 0.50576,-0.21831 0.75498,-0.5949 0.75498,-1.13522 0,-0.50392 -0.40204,-1.73011 -1.19159,-3.66762 l -1.70647,-3.97689 -12.7184,0 c -0.0219,0.0692 -0.44574,1.1243 -1.28258,3.16368 -0.83686,2.03938 -1.24801,3.3929 -1.24801,4.05694 0,1.32987 1.08245,1.99571 3.23827,1.99571 l 0,0.89327 -9.53835,0 0,-0.89327 c 1.32988,-0.12738 2.37958,-0.79137 3.14368,-1.96114 0.76589,-1.18068 1.81197,-3.25466 3.1564,-6.23459 l 9.74939,-22.61511 0.97693,0 11.72874,26.19184 z m -19.0749,-6.53476 11.23208,0 -5.63787,-12.91669 -5.59421,12.91669 z"
     id="path3207"
     inkscape:connector-curvature="0"
     style="fill:#007cc3;fill-rule:nonzero" /><path
     class="fil1"
     d="m 250.99034,274.10984 c 0,-1.92659 -1.36627,-2.88899 -4.08788,-2.88899 l 0,-0.82593 12.71841,0 c 4.08604,0 7.25337,0.67677 9.50198,2.02847 2.25041,1.35352 3.36744,3.382 3.36744,6.0763 0,2.34866 -0.81139,4.16064 -2.43599,5.45595 -1.62641,1.28258 -3.71128,2.13035 -6.25459,2.52149 l 9.46922,11.41582 c 0.74226,0.89324 1.44813,1.53544 2.10852,1.92477 0.66949,0.40204 1.49543,0.63127 2.48328,0.7004 l 0,0.89326 -7.78459,0 -11.43219,-14.44124 -2.7689,0.0564 0,10.60263 c 0,1.92477 1.43721,2.88898 4.30981,2.88898 l 0,0.89324 -13.28238,0 0,-0.89324 c 2.72159,0 4.08787,-0.9642 4.08787,-2.88898 l 0,-23.51928 z m 4.88469,11.20842 c 3.82772,-0.12553 6.67848,-0.67494 8.52684,-1.65006 1.84836,-0.98603 2.77983,-2.68157 2.77983,-5.10118 0,-2.18857 -0.69496,-3.8168 -2.09761,-4.88288 -1.40263,-1.05335 -3.26192,-1.58094 -5.60513,-1.58094 -1.17706,0 -1.99026,0.0345 -2.43779,0.10367 -0.44572,0.0692 -0.75318,0.24015 -0.91691,0.52759 -0.16736,0.28562 -0.24924,0.8132 -0.24924,1.57 l 0,11.01377 z"
     id="path3209"
     inkscape:connector-curvature="0"
     style="fill:#007cc3;fill-rule:nonzero" /><path
     class="fil1"
     d="m 308.66523,279.61179 -1.06971,0 c -2.01575,-5.3759 -5.59421,-8.05748 -10.74089,-8.05748 -2.57788,0 -4.72278,0.64037 -6.44198,1.93569 -1.70647,1.29531 -2.97812,3.0618 -3.7895,5.28493 -0.8132,2.22313 -1.22617,4.7446 -1.22617,7.56446 0,3.84044 1.07153,7.09509 3.21462,9.75484 2.13217,2.67066 5.14667,3.99872 9.02168,3.99872 2.23769,0 4.02602,-0.34384 5.3668,-1.01878 0.68403,-0.32201 1.09518,-0.59671 1.22617,-0.82595 0.12924,-0.24014 0.18921,-0.72224 0.18921,-1.44449 l 0,-7.01504 c 0,-1.07699 -0.0836,-1.89021 -0.24925,-2.44144 -0.1528,-0.56033 -0.52759,-0.98422 -1.12975,-1.29347 -0.60036,-0.3111 -1.53,-0.4712 -2.79075,-0.4712 l 0,-0.88235 12.29452,0 0,0.88235 c -1.47178,0.0345 -2.40323,0.36749 -2.79074,0.97511 -0.38751,0.61857 -0.58762,1.69555 -0.58762,3.231 l 0,8.9289 c -1.56637,0.83686 -3.52208,1.60459 -5.89074,2.28135 -2.35412,0.68768 -4.47355,1.03153 -6.34375,1.03153 -2.83985,0 -5.57238,-0.59491 -8.17391,-1.77561 -2.61427,-1.19343 -4.74644,-3.00359 -6.38376,-5.44502 -1.64825,-2.44144 -2.47237,-5.39773 -2.47237,-8.88342 0,-3.04907 0.70769,-5.8107 2.10851,-8.28671 1.41357,-2.46327 3.38019,-4.40078 5.91257,-5.81069 2.51967,-1.40993 5.33406,-2.12125 8.44134,-2.12125 1.55547,0 3.30923,0.25287 5.27585,0.75681 1.96662,0.50394 3.1564,0.7568 3.55482,0.7568 0.99148,0 1.67372,-0.50394 2.05212,-1.51361 l 0.98785,0 0.4348,9.90402 z"
     id="path3211"
     inkscape:connector-curvature="0"
     style="fill:#007cc3;fill-rule:nonzero" /><path
     class="fil1"
     d="m 313.89455,301.41161 0,-0.89324 c 2.8253,0 4.23887,-0.96421 4.23887,-2.88898 l 0,-23.51927 c 0,-1.92659 -1.41357,-2.88898 -4.23887,-2.88898 l 0,-0.82594 25.64609,0 0,6.66027 -1.06971,0 c -0.72043,-3.20916 -2.55788,-4.81375 -5.50142,-4.81375 l -7.78277,0 c -1.41174,0 -2.11944,0.61856 -2.11944,1.86838 l 0,10.04047 6.784,0 c 1.85928,0 3.33106,-0.322 4.4026,-0.96419 1.07154,-0.62947 1.61368,-1.79925 1.61368,-3.50571 l 0.97693,0 0,11.00284 -0.97693,0 c 0,-3.05997 -2.003,-4.59725 -6.01628,-4.59725 l -6.784,0 0,11.54317 c 0,1.22617 0.40023,1.84472 1.21346,1.84472 l 6.42924,0 c 1.6719,0 3.04906,-0.10181 4.12243,-0.29835 1.06973,-0.19467 2.11943,-0.72043 3.15459,-1.60459 1.03698,-0.86961 1.94297,-2.22313 2.74345,-4.06785 l 1.3426,0 -2.12126,7.9083 -26.05721,0 z"
     id="path3213"
     inkscape:connector-curvature="0"
     style="fill:#007cc3;fill-rule:nonzero" /><path
     class="fil1"
     d="m 372.31186,302.03082 -0.77682,0 -21.40906,-25.78982 0,21.38903 c 0,1.92477 1.55548,2.88898 4.66275,2.88898 l 0,0.89325 -11.4322,0 0,-0.89325 c 3.14368,0 4.72097,-0.96421 4.72097,-2.88898 l 0,-23.7959 -0.41115,-0.48028 c -0.84778,-0.90599 -1.49725,-1.47905 -1.94297,-1.7192 -0.44753,-0.24197 -1.23527,-0.3784 -2.36685,-0.41298 l 0,-0.82595 8.25396,0 18.511,22.48958 0,-18.77469 c 0,-1.92659 -1.55365,-2.88897 -4.66276,-2.88897 l 0,-0.82595 11.51589,0 0,0.82595 c -3.1073,0 -4.66275,0.96238 -4.66275,2.88897 l 0,27.92005 z"
     id="path3215"
     inkscape:connector-curvature="0"
     style="fill:#007cc3;fill-rule:nonzero" /><path
     class="fil1"
     d="m 398.94976,301.41161 -13.41153,0 0,-0.89324 c 2.8253,0 4.23886,-0.96421 4.23886,-2.88898 l 0,-25.3077 -3.47476,0 c -1.49544,0 -2.62702,0.0908 -3.41476,0.28561 -0.77681,0.19466 -1.47176,0.72225 -2.05939,1.58275 -0.58945,0.87142 -1.04972,2.24678 -1.36626,4.12607 l -1.21344,0 0.34201,-7.92104 27.27066,0 0.29473,7.92104 -1.20071,0 c -0.31839,-1.89203 -0.7641,-3.26738 -1.34262,-4.12607 -0.5876,-0.87143 -1.26983,-1.38809 -2.06121,-1.58275 -0.775,-0.19466 -1.90658,-0.28561 -3.37835,-0.28561 l -3.46204,0 0,25.3077 c 0,1.92477 1.41357,2.88898 4.23888,2.88898 l 0,0.89324 z"
     id="path3217"
     inkscape:connector-curvature="0"
     style="fill:#007cc3;fill-rule:nonzero" /><path
     class="fil1"
     d="m 417.53037,297.63019 c 0,1.92477 1.55363,2.88898 4.67548,2.88898 l 0,0.89324 -14.28478,0 0,-0.89324 c 3.12184,0 4.67548,-0.96421 4.67548,-2.88898 l 0,-23.51927 c 0,-1.92658 -1.55364,-2.88898 -4.67548,-2.88898 l 0,-0.82594 14.28478,0 0,0.82594 c -3.12185,0 -4.67548,0.9624 -4.67548,2.88898 l 0,23.51927 z"
     id="path3219"
     inkscape:connector-curvature="0"
     style="fill:#007cc3;fill-rule:nonzero" /><path
     class="fil1"
     d="m 452.57368,302.03082 -0.77682,0 -21.40906,-25.78982 0,21.38903 c 0,1.92477 1.55547,2.88898 4.66274,2.88898 l 0,0.89325 -11.43219,0 0,-0.89325 c 3.14367,0 4.72097,-0.96421 4.72097,-2.88898 l 0,-23.7959 -0.41116,-0.48028 c -0.84778,-0.90599 -1.49725,-1.47905 -1.94297,-1.7192 -0.44752,-0.24197 -1.23526,-0.3784 -2.36684,-0.41298 l 0,-0.82595 8.25396,0 18.51099,22.48958 0,-18.77469 c 0,-1.92659 -1.55365,-2.88897 -4.66275,-2.88897 l 0,-0.82595 11.51588,0 0,0.82595 c -3.10729,0 -4.66274,0.96238 -4.66274,2.88897 l 0,27.92005 z"
     id="path3221"
     inkscape:connector-curvature="0"
     style="fill:#007cc3;fill-rule:nonzero" /><path
     class="fil1"
     d="m 487.26379,295.90043 c 0.73134,1.6155 1.36626,2.78527 1.93204,3.51844 0.55306,0.73316 1.4354,1.10065 2.66158,1.10065 l 0,0.89325 -12.28362,0 0,-0.89325 c 1.24983,-0.0692 2.134,-0.2074 2.62701,-0.43662 0.50576,-0.21831 0.755,-0.5949 0.755,-1.13522 0,-0.50392 -0.40206,-1.73011 -1.19162,-3.66762 l -1.70646,-3.97689 -12.71841,0 c -0.0218,0.0692 -0.44571,1.1243 -1.28257,3.16368 -0.83686,2.03938 -1.24801,3.3929 -1.24801,4.05694 0,1.32987 1.08246,1.99571 3.23827,1.99571 l 0,0.89327 -9.53835,0 0,-0.89327 c 1.32988,-0.12738 2.37959,-0.79137 3.14367,-1.96114 0.7659,-1.18068 1.81198,-3.25466 3.15641,-6.23459 l 9.74938,-22.61511 0.97694,0 11.72874,26.19184 z m -19.07489,-6.53476 11.23208,0 -5.63787,-12.91669 -5.59421,12.91669 z"
     id="path3223"
     inkscape:connector-curvature="0"
     style="fill:#007cc3;fill-rule:nonzero" /></g>
</svg>