<svg xmlns="http://www.w3.org/2000/svg" viewBox="0 0 40 40" fill="none">
  <rect width="40" height="40" rx="8" fill="#00BCFF"/>
  <path d="M20 10c-4.5 0-8.5 2.5-10.5 6.2-.3.5 0 1.1.6 1.1h2.2c.3 0 .5-.1.7-.4C14.6 14.4 17.1 13 20 13s5.4 1.4 7 3.9c.1.2.4.4.7.4h2.2c.6 0 .9-.6.6-1.1C28.5 12.5 24.5 10 20 10zm0 7c-2.8 0-5.2 1.6-6.4 4-.3.5 0 1.1.6 1.1h2.2c.3 0 .5-.2.7-.4.7-1.2 2-2 3.5-2s2.2.6 2.9 1.6c.1.2.4.4.7.4h2.2c.6 0 .9-.6.6-1.1C25.2 18.6 22.8 17 20 17zm0 7c-.8 0-1.5.3-2 .9-.4.4-.1 1.1.5 1.1h3c.6 0 .9-.7.5-1.1-.5-.6-1.2-.9-2-.9z" fill="white"/>
</svg>
