<?xml version="1.0" encoding="UTF-8"?>
<svg width="80px" height="40px" viewBox="0 0 80 40" version="1.1" xmlns="http://www.w3.org/2000/svg" xmlns:xlink="http://www.w3.org/1999/xlink">
    <!-- Generator: Sketch 64 (93537) - https://sketch.com -->
    <title>Logo / Logotipo</title>
    <desc>Created with Sketch.</desc>
    <g id="Welcome" stroke="none" stroke-width="1" fill="none" fill-rule="evenodd">
        <g id="Home---Desktop-" transform="translate(-187.000000, -45.000000)">
            <g id="Logo-/-Logotipo" transform="translate(187.000000, 45.000000)">
                <path d="M51.9743773,0 C53.3132929,-0.000527854564 54.3924639,1.13369962 54.3929663,2.49551184 L54.4,37.5029042 C54.4,38.8647164 53.320829,39.999472 51.9824158,40 C50.6867073,40 49.6070339,38.8657725 49.6070339,37.5039603 L49.6,2.49656792 C49.5994978,1.1347557 50.6791712,0 51.9743773,0" id="Fill-6" fill="#3E6BFD"></path>
                <path d="M9.5345848,40 C4.31130636,40.0010422 0.00335442745,35.7913349 0.00228823467,30.6841266 L0.000155655288,19.9777002 C-0.000377247285,18.7237005 1.09886751,17.6031272 2.42787681,17.6031272 C3.8027324,17.602606 4.85666397,18.7226581 4.85719707,19.977179 L4.85932945,30.6830843 C4.85986255,33.2364278 6.92241248,35.2518962 9.53351861,35.251375 C12.1910041,35.2508538 14.2983341,33.2348642 14.3436473,30.6815207 L14.341515,19.9750942 C14.341515,18.7205733 15.3490671,17.6005212 16.7233896,17.6 C18.0065526,17.6 19.19749,18.7200521 19.1980231,19.9740518 L19.2001557,30.6804783 C19.2012217,35.7871654 14.8037095,39.9989574 9.5345848,40" id="Path" fill="#3E6BFD"></path>
                <path d="M75.1886206,28.8440422 C75.1880927,26.9629989 74.5070877,25.3503782 73.4180077,24.2303 C72.3289276,23.0210951 70.7858442,22.3940807 69.1978884,22.3946016 C67.5645323,22.3951231 66.0219769,23.0226587 64.9782971,24.2318636 C63.889745,25.352463 63.2551962,26.9656049 63.2557237,28.8466482 C63.2557237,30.6833888 63.8913287,32.2960095 64.9804088,33.4603904 C66.0240885,34.5804685 67.5671719,35.2069618 69.200528,35.2069618 C70.7884838,35.2064406 72.3310393,34.5789049 73.4201193,33.4588268 C74.5086715,32.2939246 75.1886206,30.6807827 75.1886206,28.8440422 L75.1886206,28.8440422 Z M79.9978884,28.8429998 L80,37.623808 C80,38.9226608 78.9114479,39.997915 77.5953661,39.9984362 C76.4160133,39.9984362 75.5080067,39.1478231 75.2361326,38.0725689 C73.5119758,39.282295 71.4700167,39.9994786 69.2015838,40 C66.115945,40.000521 63.4389091,38.7470134 61.4872228,36.7314981 C59.5360643,34.6711589 58.401056,31.8941573 58.4,28.8476906 C58.3994723,25.7569212 59.5334248,22.9788772 61.4840553,20.9628407 C63.4346858,18.9019803 66.1117217,17.602085 69.1968326,17.6015638 C71.4652655,17.6010426 73.5072246,18.362529 75.2324372,19.5712127 C75.5037834,18.4516557 76.4112621,17.6 77.5906149,17.6 C78.9066967,17.599479 79.9957767,18.674212 79.9963046,20.01841 L79.9978884,28.8429998 Z" id="Fill-8" fill="#3E6BFD"></path>
                <path d="M39.9886206,28.8440422 C39.9880927,26.9629989 39.3070877,25.3503782 38.2180077,24.2303 C37.1289276,23.0210951 35.5858442,22.3940807 33.9978884,22.3946016 C32.3645323,22.3951231 30.8219769,23.0226587 29.7782971,24.2318636 C28.689745,25.352463 28.0551962,26.9656049 28.0557237,28.8466482 C28.0557237,30.6833888 28.6913287,32.2960095 29.7804088,33.4603904 C30.8240885,34.5804685 32.3671719,35.2069618 34.000528,35.2069618 C35.5884838,35.2064406 37.1310393,34.5789049 38.2201193,33.4588268 C39.3086715,32.2939246 39.9886206,30.6807827 39.9886206,28.8440422 L39.9886206,28.8440422 Z M44.7978884,28.8429998 L44.8,37.623808 C44.8,38.9226608 43.7114479,39.997915 42.3953661,39.9984362 C41.2160133,39.9984362 40.3080067,39.1478231 40.0361326,38.0725689 C38.3119758,39.282295 36.2700167,39.9994786 34.0015838,40 C30.915945,40.000521 28.2389091,38.7470134 26.2872228,36.7314981 C24.3360643,34.6711589 23.201056,31.8941573 23.2,28.8476906 C23.1994723,25.7569212 24.3334248,22.9788772 26.2840553,20.9628407 C28.2346858,18.9019803 30.9117217,17.602085 33.9968326,17.6015638 C36.2652655,17.6010426 38.3072246,18.362529 40.0324372,19.5712127 C40.3037834,18.4516557 41.2112621,17.6 42.3906149,17.6 C43.7066967,17.599479 44.7957767,18.674212 44.7963046,20.01841 L44.7978884,28.8429998 Z" id="Fill-8-Copy" fill="#3E6BFD"></path>
                <path d="M77.0540449,4.88375579 L77.0404219,4.87011368 C75.7347134,3.51449263 73.2904397,2.76266105 71.318254,4.04400842 C69.8045333,5.10910316 68.7492777,6.51878737 68.2426083,7.19685053 C68.1828769,7.27617684 68.1304809,7.34691368 68.0828005,7.40805053 L68.0592223,7.43887158 C67.931376,7.61015579 67.8030058,7.78548211 67.6735877,7.96282947 C66.4946775,9.57209263 65.1591033,11.3965979 63.5290635,11.5774821 C63.4085527,11.5906189 63.2911856,11.5951663 63.181678,11.5891032 C62.9249375,11.5764716 62.682868,11.7139032 62.5728364,11.9397558 C62.4659485,12.1585347 62.5057695,12.4061137 62.6839159,12.5925558 C63.5185843,13.4611032 64.8201011,14.0820716 66.1661546,14.0820716 C66.9253727,14.0820716 67.6987378,13.8840084 68.4107995,13.4211874 C69.9229483,12.3576084 70.9776799,10.9479242 71.4843493,10.2708716 C71.5446047,10.1905347 71.5975247,10.1192926 71.6467769,10.0556295 L71.6693072,10.0273347 C71.7966295,9.85605053 71.9255237,9.68021895 72.0554658,9.50287158 C73.233852,7.89360842 74.5694262,6.06960842 76.199466,5.88821895 C76.3210248,5.87508211 76.4378679,5.87053474 76.5468516,5.87659789 C76.8051639,5.89074526 77.0456615,5.75230316 77.1551692,5.52594526 C77.2620571,5.30716632 77.2227601,5.06059789 77.0540449,4.88375579" id="Fill-11" fill="#FF6766"></path>
            </g>
        </g>
    </g>
</svg>